<svg width="1068.79" height="689.43" xmlns="http://www.w3.org/2000/svg">
 <title>joyride</title>

 <g>
  <title>background</title>
  <rect fill="none" id="canvas_background" height="602" width="802" y="-1" x="-1"/>
 </g>
 <g>
  <title>Layer 1</title>
  <path id="svg_7" fill="#00bfa6" d="m814.40002,404.94c-9.94,-17.22 -51,-12.14999 -91.60999,11.31998a195.17,195.17 0 0 0 -20.38,13.51001a176.64999,176.64999 0 0 0 -352.48004,4.44a189.49001,189.49001 0 0 0 -26,-18c-40.53,-23.41998 -81.59999,-28.48999 -91.52998,-11.26999s15,50.19998 55.60997,73.67001c26.31003,15.19 52.76001,22.65997 70.85001,21.39001a176.85001,176.85001 0 0 0 53.82001,79.00003c-35.62,5 -61.81,21.65997 -61.81,41.47998c0,23.73993 37.60999,43 84,43s84,-19.26007 84,-43c0,-0.06 0,-0.12 0,-0.19q3.74005,0.15991 7.51001,0.16998t7.51001,-0.16998c0,0.07001 0,0.13 0,0.19c0,23.73993 37.60999,43 84,43s84,-19.26007 84,-43c0,-19.82001 -26.19,-36.48999 -61.81,-41.47998a176.82001,176.82001 0 0 0 53.78003,-78.85007c17.69,-0.46002 41.39996,-7.87 65,-21.5c40.62,-23.51001 65.53998,-56.5 55.53998,-73.70999z"/>
  <path id="svg_8" opacity="0.1" d="m232.40001,413.93997c9.93999,-17.22 50.99998,-12.14999 91.60997,11.32001a189.25,189.25 0 0 1 25.61002,17.64001c0.38998,-8.46002 0.38998,0.53998 0.37,-8.70001a189.58,189.58 0 0 0 -26,-17.94c-40.59,-23.46997 -81.65999,-28.53998 -91.58998,-11.31998c-2.19002,3.79001 -2.68001,8.35001 -1.69002,13.39999a16,16 0 0 1 1.69002,-4.40002z"/>
  <path id="svg_9" opacity="0.1" d="m814.62,413.93997c-9.94,-17.22 -51,-12.14999 -91.62,11.32001c-9.46997,5.46002 -13.07996,7.46002 -20.59998,13.64001c-0.40002,-8.46002 -0.40002,0.53998 -0.37,-8.70001c7.59998,-6.28998 11.34998,-8.38 21,-13.94c40.65997,-23.47 81.67999,-28.53998 91.62,-11.31998c2.19,3.79001 2.67999,8.35001 1.69,13.39999a16,16 0 0 0 -1.72003,-4.40002z"/>
  <ellipse id="svg_10" fill="#444053" ry="23.99" rx="18.32" cy="409.54" cx="479.03"/>
  <ellipse id="svg_11" fill="#444053" ry="23.99" rx="18.32" cy="409.54" cx="573.68"/>
  <path id="svg_12" fill="#3f3d56" d="m640.20001,485.00003c0,34.44003 -57.52997,92.46005 -115.58002,92.46005s-113.41,-59.33008 -113.41,-93.74008s54.19,-3 112.19003,-3s116.79999,-30.16998 116.79999,4.28003z"/>
  <path id="svg_13" fill="#f6f8fb" d="m429.50998,490.87997s104.35001,23.23001 192.00003,0.65997c0,0 10.72998,0 3.40002,12.40002a19.81,19.81 0 0 1 -8,7.52002c-16.90002,8.63004 -79.45001,34.14999 -179.47006,1.60995a19.68,19.68 0 0 1 -13.03998,-13.34995c-1.14001,-4.21002 -0.63,-8.25 5.10999,-8.84003z"/>
  <path id="svg_14" opacity="0.1" d="m525.71002,290.54999a176.64,176.64 0 0 1 176.32001,166.17001q0.5,-6.59998 0.5,-13.33002a176.64999,176.64999 0 0 0 -353.29004,0c0,3.53003 0.12,7 0.32001,10.51001a176.66,176.66 0 0 1 176.15002,-163.35001z"/>
  <path id="svg_15" fill="#3f3d56" d="m545.64001,62.08a22.64,22.64 0 1 1 -45.28006,0c0,-0.37 0,-0.73 0,-1.09a22.64,22.64 0 0 1 45.22006,0c0.04999,0.36 0.06,0.73 0.06,1.09z"/>
  <path id="svg_16" opacity="0.1" d="m545.64001,62.08a22.64,22.64 0 1 1 -45.28006,0c0,-0.37 0,-0.73 0,-1.09a35.74,35.74 0 0 1 45.22006,0c0.04999,0.36 0.06,0.73 0.06,1.09z"/>
  <circle id="svg_17" fill="#3f3d56" r="35.75" cy="90.68" cx="523"/>
  <path id="svg_18" fill="#3f3d56" d="m501.39999,57.08a22.65,22.65 0 0 1 19.64005,-22.44a22.64,22.64 0 1 0 0,44.88a22.65,22.65 0 0 1 -19.64005,-22.44z"/>
  <path id="svg_19" fill="#3f3d56" d="m482.67001,105.19a22.64,22.64 0 0 1 -3.81,-29.58a22.64,22.64 0 1 0 31.78998,32.11a21.75,21.75 0 0 0 1.84006,-2.39a22.63,22.63 0 0 1 -29.82004,-0.14z"/>
  <path id="svg_20" fill="#ffc1c7" d="m504.30997,136.00999c-1.78003,0.59999 -3.76001,0.73 -5.28998,1.81c-3,2.06999 -2.87,6.46001 -2,10c2,7.99998 7,15.71001 14.56995,18.99998c4.58005,2 9.70004,2.19 14.68008,2.13c5.42999,-0.06 11.53998,-0.75 14.89996,-5c1.66998,-2.13 2.38,-4.82999 3.04999,-7.45999c1.66003,-6.5 3.33002,-13.14999 2.73004,-19.83c-3.29004,0.29001 -7,0.48 -9.52002,-1.59s-3.17999,-6 -4.29999,-9.28999a2.34,2.34 0 0 0 -0.84003,-1.32001a2.56,2.56 0 0 0 -1.5,-0.23a59.24,59.24 0 0 1 -10.28998,-0.50999c-2.13,-0.28 -7.37,-2.5 -9.00003,-0.63c-1.16998,1.37001 -0.42999,5.5 -1.32001,7.41a10.36,10.36 0 0 1 -5.87,5.50999z"/>
  <path id="svg_21" opacity="0.05" d="m504.30997,136.00999c-1.78003,0.59999 -3.76001,0.73 -5.28998,1.81c-3,2.06999 -2.87,6.46001 -2,10c2,7.99998 7,15.71001 14.56995,18.99998c4.58005,2 9.70004,2.19 14.68008,2.13c5.42999,-0.06 11.53998,-0.75 14.89996,-5c1.66998,-2.13 2.38,-4.82999 3.04999,-7.45999c1.66003,-6.5 3.33002,-13.14999 2.73004,-19.83c-3.29004,0.29001 -7,0.48 -9.52002,-1.59s-3.17999,-6 -4.29999,-9.28999a2.34,2.34 0 0 0 -0.84003,-1.32001a2.56,2.56 0 0 0 -1.5,-0.23a59.24,59.24 0 0 1 -10.28998,-0.50999c-2.13,-0.28 -7.37,-2.5 -9.00003,-0.63c-1.16998,1.37001 -0.42999,5.5 -1.32001,7.41a10.36,10.36 0 0 1 -5.87,5.50999z"/>
  <path id="svg_22" fill="#444053" d="m317.56,369.29999c-8,0.23999 -16.17001,-0.10001 -24,1.66a6.15,6.15 0 0 0 -3.88,2c-1.14999,1.64001 -0.54001,3.92999 0.41,5.70001a17.71,17.71 0 0 0 10.12,8.40997c4.76001,1.52002 9.89001,0.94 14.87,1.10001a49.74,49.74 0 0 1 19.62,4.72c1.40002,0.66 2.88,1.39999 4.41,1.17001c2.21002,-0.34 3.59,-2.55002 4.41,-4.63a56.5,56.5 0 0 0 2.20999,-7.67001c1.16,-4.92999 1.32001,-14.66998 -5.44998,-16c-3.10001,-0.59998 -6.75,1.54001 -9.73001,2.16a72.41,72.41 0 0 1 -12.98999,1.38z"/>
  <path id="svg_23" fill="#444053" d="m727.57001,371.61002a9.22,9.22 0 0 0 4.66998,-3.58002c3,-4.37 3,-9.59 4.59003,-14.37997c2,-6.23001 6.42999,-11.37003 9.20996,-17.30002a35.77,35.77 0 0 0 3.34003,-17a3,3 0 0 0 -3.51001,-2.79999c-3.77002,0.73001 -7.19,3.45999 -9.58997,6.58002c-3.09003,4 -5.11005,8.75998 -8.28003,12.70999s-7.62,7.12 -11.39001,10.75c-4.72998,4.56 -8.44,9.51999 -4.21997,15.43997c3.42999,4.86002 8.16998,11.88 15.17999,9.58002z"/>
  <path id="svg_24" fill="#575a89" d="m482.49002,240.66a321.29001,321.29001 0 0 1 -92,81.16998c-10.88998,6.39001 -22.25,12.19 -31.92999,20.30002c-7.34,6.16 -13.57001,13.51999 -19.76001,20.84a5,5 0 0 0 -1.39999,2.56a4.91,4.91 0 0 0 0.37,2.06c2,5.89999 4.32001,12.30002 9.66,15.52002c13.84,-20 41.34,-25.17001 62.42999,-37.27002c9.80002,-5.62 18.73001,-12.60001 27.77002,-19.35999q19.59998,-14.67001 40.07001,-28.11002c9.04999,-5.94 18.37,-11.78 28.75,-14.87c22.00003,-6.57999 46.00003,0 66.32004,10.79999s38.20996,25.56003 58.12,37.05002c27.06,15.60001 57.25,24.79999 87.13995,33.87c1.07001,-7.17999 1.72003,-14.22 3.23999,-21.32001c-7.45996,-1.04999 -14.50995,-4 -21.46997,-6.88998c-7.77002,-3.24002 -15.58997,-6.52002 -22.57001,-11.23001c-4.60999,-3.12 -8.79999,-6.84 -13.35999,-10c-9.94,-7 -21.46002,-11.39999 -31.53003,-18.19c-13.12,-8.84 -23.26996,-21.35001 -35.26996,-31.66c-5.23004,-4.48999 -10.79004,-8.56 -16.36005,-12.62c-5.75995,-4.20999 -11.60999,-8.45999 -18.25,-11.07001c-7.88,-3.10999 -16.47998,-3.75 -24.92999,-4.34998c-18.90002,-1.40002 -37.13004,-3.26001 -55.04001,2.76999z"/>
  <circle id="svg_25" fill="#ffc1c7" r="25" cy="107.93" cx="522.5"/>
  <path id="svg_26" fill="#ff6584" d="m521.76001,160.06a30,30 0 0 1 -12.62003,-4.60001a18.38,18.38 0 0 1 -7.69,-10.73999c-0.81,-3.53 -0.35999,-7.34 -1.77997,-10.66a95.44,95.44 0 0 1 -14,5.68001c-2.71002,0.84999 -5.54004,1.62999 -7.74005,3.42c-4.72998,3.84999 -5,10.85001 -4.87,16.94a11.26,11.26 0 0 0 0.45001,3.57001a9,9 0 0 0 1.95001,2.94c5.14001,5.5 13.13,7.78 18,13.54999a19.29,19.29 0 0 0 -4.71002,10.16a35.89,35.89 0 0 1 -0.64001,4.51999a27.89,27.89 0 0 1 -1.46997,3.59c-3.15997,7.20001 -3.04999,15.34 -3.53003,23.18002s-1.83997,16.18997 -7.13995,22c2.15997,2.31998 5,3 8.10999,3.28998s6.33002,-0.12 9.5,0c8.35999,0.24002 16.25,3.66 24.31003,5.89001s17.21002,3.13998 24.34003,-1.23001c2.5,-1.53 4.62,-3.63998 7.12994,-5.14999c3,-1.82001 6.52002,-2.69 10,-3.54001l1.25,-41.75998a70.94,70.94 0 0 1 0.63,-8.75c1.81,-11.42001 9.10004,-21.09003 16.16003,-30.24002a27.67,27.67 0 0 0 -12.69,-20.59999a54.36,54.36 0 0 0 -10,-4.64l-8.21997,-3.16a4.58,4.58 0 0 0 -2.34003,-0.44c-1.77997,0.32001 -2.45996,2.49001 -2.56,4.29001c-0.15997,2.84 0.26001,5.68999 0.16003,8.53s-0.81,5.84 -2.82001,7.85001a13.56,13.56 0 0 1 -5,2.84c-4.20001,1.60001 -7.74005,3.92999 -12.17004,3.26999z"/>
  <path id="svg_27" fill="#ffc1c7" d="m488.57999,264.72c0.33002,5.57001 0.65997,11.20001 -0.28003,16.70001s-3.23999,10.94 -7.41998,14.63998c-3.22998,2.85001 -7.77002,5 -8.57001,9.26999a5,5 0 0 0 0.22003,2.80002c0.89001,2.10001 3.5,3.04999 5.76001,2.69a13.43,13.43 0 0 0 6,-3.14001a132.53999,132.53999 0 0 0 9.94,-9c2.78998,-2.70999 5.67999,-5.56998 6.84998,-9.28a22.91,22.91 0 0 0 0.81,-5.41998c0.65002,-10 0.82001,-20 1,-30c0.12,-7.28 0.20001,-14.79001 -2.47998,-21.56c0.39996,1 -9.34003,1.94998 -10.08002,2c-4.20001,0.37 -3.40002,2.09998 -3.15997,6.06q0.69995,12.16 1.40997,24.23999z"/>
  <path id="svg_28" fill="#ffc1c7" d="m561.40002,264.72c-0.33002,5.57001 -0.65997,11.20001 0.28003,16.70001s3.23999,10.94 7.41998,14.63998c3.22998,2.85001 7.76996,5 8.57001,9.26999a5,5 0 0 1 -0.22003,2.80002c-0.89001,2.10001 -3.5,3.04999 -5.76001,2.69a13.43,13.43 0 0 1 -6,-3.14001a132.53999,132.53999 0 0 1 -9.94,-9c-2.78998,-2.70999 -5.67999,-5.56998 -6.84998,-9.28a22.91,22.91 0 0 1 -0.81,-5.41998c-0.65002,-10 -0.82001,-20 -1,-30c-0.12,-7.28 -0.20001,-14.79001 2.47998,-21.56c-0.39996,1 9.34003,1.94998 10.08002,2c4.20001,0.37 3.40002,2.09998 3.15997,6.06q-0.65997,12.16 -1.40997,24.23999z"/>
  <path id="svg_29" opacity="0.1" d="m476.03,156.42001c-3.53003,10.41998 -2.09998,22 1.51001,32.37c0.88,2.54999 1.90997,5.20999 1.5,7.88a24.78,24.78 0 0 1 -1.23999,4a18.94,18.94 0 0 0 -0.54004,9.70999a6.08,6.08 0 0 0 1.10999,2.67999a12.45,12.45 0 0 1 1,1.16c1.37006,2.14001 -1.31995,4.79001 -1,7.32001c0.24005,2.10001 2.37006,3.34 3.86005,4.85001c4.21002,4.26999 3.39996,11.22 2.29999,17.12c5.10999,-0.45001 9.52002,-4.63 14.64001,-4.29001a8.76,8.76 0 0 1 7.53998,5.81c-0.19,-4.94998 1.57001,-9.16998 2,-14.10999c0.57001,-6.42999 -3.58997,-12.19 -5.59998,-18.31c-2.92999,-8.92001 -1.28003,-18.61002 -2,-28a93.56,93.56 0 0 0 -1.52002,-10.39001c-0.90997,-4.69998 -2.23999,-9.84 -6.21997,-12.50998c-5.13,-3.41003 -12.85004,-0.99002 -17.34003,-5.29001z"/>
  <path id="svg_30" fill="#ff6584" d="m475.03,154.42001c-3.53003,10.41998 -2.09998,22 1.51001,32.37c0.88,2.54999 1.90997,5.20999 1.5,7.88a24.78,24.78 0 0 1 -1.23999,4a18.94,18.94 0 0 0 -0.54004,9.70999a6.08,6.08 0 0 0 1.10999,2.67999a12.45,12.45 0 0 1 1,1.16c1.37006,2.14001 -1.31995,4.79001 -1,7.32001c0.24005,2.10001 2.37006,3.34 3.86005,4.85001c4.21002,4.26999 3.39996,11.22 2.29999,17.12c5.10999,-0.45001 9.52002,-4.63 14.64001,-4.29001a8.76,8.76 0 0 1 7.53998,5.81c-0.19,-4.94998 1.57001,-9.16998 2,-14.10999c0.57001,-6.42999 -3.58997,-12.19 -5.59998,-18.31c-2.92999,-8.92001 -1.28003,-18.61002 -2,-28a93.56,93.56 0 0 0 -1.52002,-10.39001c-0.90997,-4.69998 -2.23999,-9.84 -6.21997,-12.50998c-5.13,-3.41003 -12.85004,-0.99002 -17.34003,-5.29001z"/>
  <path id="svg_31" opacity="0.1" d="m573.98004,156.42001c3.53003,10.41998 2.09998,22 -1.51001,32.37c-0.88,2.54999 -1.90997,5.20999 -1.5,7.88a24.78,24.78 0 0 0 1.23999,4a18.94,18.94 0 0 1 0.54004,9.70999a6.08,6.08 0 0 1 -1.11005,2.67999a12.45,12.45 0 0 0 -1,1.16c-1.37,2.14001 1.32001,4.79001 1,7.32001c-0.23999,2.10001 -2.37,3.34 -3.85999,4.85001c-4.20996,4.26999 -3.39996,11.22 -2.29999,17.12c-5.10999,-0.45001 -9.52002,-4.63 -14.64001,-4.29001a8.76,8.76 0 0 0 -7.53998,5.81c0.19,-4.94998 -1.57001,-9.16998 -2,-14.10999c-0.57001,-6.42999 3.58997,-12.19 5.59998,-18.31c2.92999,-8.92001 1.28003,-18.61002 2,-28a93.56,93.56 0 0 1 1.5,-10.34003c0.90997,-4.70001 2.23999,-9.84 6.21997,-12.51001c5.15002,-3.45999 12.87006,-1.03998 17.36005,-5.33997z"/>
  <path id="svg_32" fill="#ff6584" d="m574.98004,154.42001c3.53003,10.41998 2.09998,22 -1.51001,32.37c-0.88,2.54999 -1.90997,5.20999 -1.5,7.88a24.78,24.78 0 0 0 1.23999,4a18.94,18.94 0 0 1 0.54004,9.70999a6.08,6.08 0 0 1 -1.11005,2.67999a12.45,12.45 0 0 0 -1,1.16c-1.37,2.14001 1.32001,4.79001 1,7.32001c-0.23999,2.10001 -2.37,3.34 -3.85999,4.85001c-4.20996,4.26999 -3.39996,11.22 -2.29999,17.12c-5.10999,-0.45001 -9.52002,-4.63 -14.64001,-4.29001a8.76,8.76 0 0 0 -7.53998,5.81c0.19,-4.94998 -1.57001,-9.16998 -2,-14.10999c-0.57001,-6.42999 3.58997,-12.19 5.59998,-18.31c2.92999,-8.92001 1.28003,-18.61002 2,-28a93.56,93.56 0 0 1 1.5,-10.34003c0.90997,-4.70001 2.23999,-9.84 6.21997,-12.51001c5.15002,-3.45999 12.87006,-1.03998 17.36005,-5.33997z"/>
  <ellipse id="svg_33" fill="#3f3d56" ry="20" rx="30" cy="84.43" cx="522"/>
  <path id="svg_34" opacity="0.05" d="m496.99997,190.44a14,14 0 0 1 13,-14c-0.33002,0 -0.65997,0 -1,0a14,14 0 0 0 0,28c0.34003,0 0.66998,0 1,-0.04999a14,14 0 0 1 -13,-13.95001z"/>
  <ellipse id="svg_35" fill="#ff6584" ry="14" rx="11" cy="190.43" cx="508"/>
  <path id="svg_36" opacity="0.05" d="m554,190.44a14,14 0 0 0 -13,-14c0.34003,0 0.66998,0 1,0a14,14 0 0 1 0,28c-0.33002,0 -0.65997,0 -1,-0.04999a14,14 0 0 0 13,-13.95001z"/>
  <ellipse id="svg_37" fill="#ff6584" ry="14" rx="11" cy="190.43" cx="543"/>
  <path id="svg_38" opacity="0.1" d="m522,102.44c-16.06003,0 -29.18002,-8.42 -30.00003,-19c0,0.33 0,0.66 0,1c0,11 13.44,20 30.00003,20s30,-9 30,-20c0,-0.34 0,-0.67 0,-1c-0.81,10.58 -13.92999,19 -30,19z"/>
  <path id="svg_45" stroke-width="4" stroke-miterlimit="10" stroke="#3f3d56" fill="none" d="m241.40001,653.89001c-4.13002,-7.64001 0.54997,-17 5.92999,-23.81006s11.95,-13.91003 11.80998,-22.58997c-0.19998,-12.47998 -13.44997,-19.84998 -24,-26.45996a117,117 0 0 1 -21.56,-17.31006a31.49,31.49 0 0 1 -6.63,-8.86993c-2.19,-4.88007 -2.13,-10.42999 -2,-15.78009q0.69,-26.69995 2.64001,-53.35995"/>
  <path id="svg_46" fill="#57b894" d="m187.48001,484.72a19.41,19.41 0 0 1 9.71999,-16l4.34999,8.60999l-0.14998,-10.39001a19.2,19.2 0 0 1 6.40999,-0.77002a19.46,19.46 0 1 1 -20.32999,18.55005z"/>
  <path id="svg_47" fill="#57b894" d="m222.19,616.41003a19.46,19.46 0 1 0 -0.94,-15.66998l12.15001,9.88989l-13.37001,-3.09998a19.17,19.17 0 0 0 2.16,8.88007z"/>
  <path id="svg_48" fill="#57b894" d="m231.79999,578.62994a19.46,19.46 0 0 0 6.16998,-38.17999l0.10002,8l-4.40997,-8.72998l-0.04999,0a19.47,19.47 0 1 0 -1.81,38.89001l-0.00005,0.01996z"/>
  <path id="svg_49" fill="#57b894" d="m184.56,547.18994a19.46,19.46 0 1 0 -8.60999,-36.41995l3.44,9.42996l-7.07001,-6.79993a19.38,19.38 0 0 0 -6.29001,13.44a19,19 0 0 0 0.48999,5.35992a19.45,19.45 0 0 0 18.04001,14.98999z"/>
  <path id="svg_50" opacity="0.1" d="m190.10001,489.87997c4.48999,0.5 8.85999,1.89001 13.37001,2.16998s9.44997,-0.79999 12.29997,-4.29999c1.54001,-1.89001 2.31001,-4.27997 3.61003,-6.33002a13.82,13.82 0 0 1 4.89998,-4.62a19.46,19.46 0 1 1 -36.38,12.92004c0.73,0 1.50002,0.08002 2.20001,0.15997z"/>
  <path id="svg_51" opacity="0.1" d="m184.56,547.18994a19.47,19.47 0 0 0 18.51003,-27.76001a14.34,14.34 0 0 0 -3.92003,3.92004c-1.38,2.09003 -2.21999,4.51001 -3.84999,6.42999c-3,3.56 -8.20999,4.72998 -12.90999,4.50995s-9.23001,-1.53992 -13.91,-2c-0.64001,-0.06 -1.30002,-0.09998 -2,-0.12a19.45,19.45 0 0 0 18.07999,15.02002z"/>
  <path id="svg_52" opacity="0.1" d="m231.79999,578.62994a19.46,19.46 0 0 0 18.66998,-27.40002a15.67,15.67 0 0 0 -4.12,4c-1.50998,2.14008 -2.44998,4.59003 -4.22,6.56c-3.28998,3.66003 -8.79997,5 -13.78,4.83008c-4.81998,-0.10004 -9.45999,-1.29004 -14.24998,-1.65002a19.48,19.48 0 0 0 17.7,13.65997z"/>
  <path id="svg_53" opacity="0.1" d="m222.19,616.41003a19.46,19.46 0 0 0 35.47,-15.88007a19.57,19.57 0 0 0 -4.26999,3.81c-1.84999,2.26007 -3.06999,4.81006 -5.21002,6.91003c-4,3.90997 -10.39999,5.51996 -16.12,5.67004a84.94,84.94 0 0 1 -9.87,-0.51001z"/>
  <path id="svg_54" stroke-width="4" stroke-miterlimit="10" stroke="#3f3d56" fill="none" d="m817.90002,646.36005c-3,-5.64008 0.40997,-12.56 4.39001,-17.59009s8.82001,-10.26996 8.70996,-16.67993c-0.13995,-9.21997 -9.92999,-14.65997 -17.73999,-19.54999a86.29,86.29 0 0 1 -15.94,-12.82007a23.55,23.55 0 0 1 -4.90002,-6.56c-1.60999,-3.59991 -1.57001,-7.69995 -1.46997,-11.65002q0.51001,-19.71997 2,-39.41992"/>
  <path id="svg_55" fill="#57b894" d="m778.04004,521.38a14.4,14.4 0 0 1 7.17999,-11.78006l3.22003,6.37003l-0.10004,-7.70999a14.59,14.59 0 0 1 4.73999,-0.57001a14.38,14.38 0 1 1 -15,13.69003l-0.03998,0z"/>
  <path id="svg_56" fill="#57b894" d="m803.68005,618.71997a14.37,14.37 0 1 0 -0.70001,-11.56995l9,7.31l-9.87,-2.28998a14.21,14.21 0 0 0 1.57001,6.54993z"/>
  <path id="svg_57" fill="#57b894" d="m810.78003,590.71997a14.38,14.38 0 0 0 15,-13.68994a14.19,14.19 0 0 0 -1.23999,-6.54004a14.41,14.41 0 0 0 -9.22998,-8l0.06995,5.93005l-3.25,-6.45007l0,0a14.38,14.38 0 1 0 -1.34998,28.75z"/>
  <path id="svg_58" fill="#57b894" d="m775.88,567.54004a14.38,14.38 0 1 0 -6.34998,-26.90002l2.53998,7l-5.22998,-5a14.28,14.28 0 0 0 -4.64001,9.92004a14,14 0 0 0 0.35999,4a14.37,14.37 0 0 0 13.32001,10.97998z"/>
  <path id="svg_59" opacity="0.1" d="m779.98004,525.20996c3.31,0.37 6.53998,1.40002 9.87,1.60999s7,-0.59998 9.09003,-3.17993c1.13995,-1.40002 1.70996,-3.15997 2.65997,-4.67999a10.28,10.28 0 0 1 3.62,-3.40997a14.37,14.37 0 0 1 -13.48999,20.87a14.4,14.4 0 0 1 -13.33002,-11.33002c0.48999,0.01996 1,0.06 1.58002,0.11993z"/>
  <path id="svg_60" opacity="0.1" d="m775.88,567.54004a14.39,14.39 0 0 0 13.67999,-20.5a10.78,10.78 0 0 0 -2.89996,2.89001c-1,1.54999 -1.64001,3.32996 -2.84003,4.75c-2.23999,2.62994 -6.07001,3.5 -9.53998,3.33997s-6.81,-1.14996 -10.27002,-1.45996c-0.47998,-0.05005 -1,-0.08002 -1.45001,-0.09003a14.37,14.37 0 0 0 13.32001,11.07001z"/>
  <path id="svg_61" opacity="0.1" d="m810.78003,590.71997a14.38,14.38 0 0 0 15,-13.68994a14.19,14.19 0 0 0 -1.23999,-6.54004a11.58,11.58 0 0 0 -3,2.92004c-1.12,1.56995 -1.81,3.39001 -3.12,4.83997c-2.42999,2.69995 -6.5,3.66003 -10.17999,3.56995s-7,-0.94989 -10.52002,-1.21991a14.36,14.36 0 0 0 13.06,10.11993z"/>
  <path id="svg_62" opacity="0.1" d="m803.68005,618.71997a14.38,14.38 0 0 0 26.21002,-11.71991a14.26,14.26 0 0 0 -3.16003,2.81c-1.37,1.66998 -2.26996,3.54999 -3.84998,5.10999c-2.94,2.88 -7.67999,4.07001 -11.90002,4.17993a60.9,60.9 0 0 1 -7.29999,-0.38z"/>
  <path id="svg_63" stroke-width="4" stroke-miterlimit="10" stroke="#3f3d56" fill="none" d="m939.57001,660.89001c4.13,-7.64001 -0.54999,-17 -5.92999,-23.81006s-12,-13.91003 -11.81,-22.58997c0.20001,-12.47998 13.45001,-19.84998 24,-26.45996a117,117 0 0 0 21.57001,-17.31006a31.49,31.49 0 0 0 6.63,-8.86993c2.18994,-4.88007 2.13,-10.42999 2,-15.78009q-0.63,-26.73999 -2.63,-53.34995"/>
  <path id="svg_64" fill="#57b894" d="m993.53003,491.72a19.44,19.44 0 0 0 -9.71997,-16l-4.35999,8.62l0.13989,-10.42999a19.23,19.23 0 0 0 -6.40991,-0.77002a19.46,19.46 0 1 0 20.34998,18.58002z"/>
  <path id="svg_65" fill="#57b894" d="m958.82007,623.41003a19.46,19.46 0 1 1 0.93994,-15.66998l-12.14996,9.88989l13.37006,-3.09998a19.17,19.17 0 0 1 -2.16003,8.88007z"/>
  <path id="svg_66" fill="#57b894" d="m949.21002,585.62994a19.46,19.46 0 0 1 -6.16998,-38.17999l-0.10004,8l4.46002,-8.72998l0,0a19.47,19.47 0 1 1 1.81,38.89001l0,0.01996z"/>
  <path id="svg_67" fill="#57b894" d="m996.45007,554.18994a19.46,19.46 0 1 1 8.60999,-36.41998l-3.43994,9.42999l7.06995,-6.79993a19.46,19.46 0 0 1 -12.23999,33.78992z"/>
  <path id="svg_68" opacity="0.1" d="m990.91003,496.87997c-4.48999,0.5 -8.85999,1.89001 -13.37,2.16998s-9.44995,-0.79999 -12.30005,-4.29999c-1.53992,-1.89001 -2.30994,-4.27997 -3.60999,-6.33002a13.82,13.82 0 0 0 -4.89996,-4.62a19.46,19.46 0 1 0 36.37994,12.92004c-0.70996,0 -1.46997,0.08002 -2.19995,0.15997z"/>
  <path id="svg_69" opacity="0.1" d="m996.45007,554.18994a19.47,19.47 0 0 1 -18.51001,-27.76001a14.34,14.34 0 0 1 3.92004,3.92004c1.38,2.09003 2.21997,4.51001 3.84998,6.42999c3,3.56 8.20996,4.72998 12.91003,4.50995s9.22998,-1.53992 13.90991,-2c0.64001,-0.06 1.30005,-0.09998 2,-0.12a19.45,19.45 0 0 1 -18.07996,15.02002z"/>
  <path id="svg_70" opacity="0.1" d="m949.21002,585.62994a19.46,19.46 0 0 1 -18.66998,-27.40002a15.67,15.67 0 0 1 4.12,4c1.51001,2.14008 2.45001,4.59003 4.21997,6.56c3.29004,3.66003 8.80005,5 13.78003,4.83008c4.82001,-0.10004 9.45996,-1.29004 14.25,-1.65002a19.48,19.48 0 0 1 -17.70001,13.65997z"/>
  <path id="svg_71" opacity="0.1" d="m958.82007,623.41003a19.46,19.46 0 0 1 -35.42004,-15.88007a19.57,19.57 0 0 1 4.27002,3.81c1.84998,2.26007 3.07001,4.81006 5.20996,6.91003c4,3.90997 10.40002,5.51996 16.12,5.67004a84.94,84.94 0 0 0 9.82007,-0.51001z"/>
  <path id="svg_72" fill="#656380" d="m211.23,648.09998s15.34999,-0.47992 20,-3.77002s23.62999,-7.22998 24.77998,-2s23.08002,26.2901 5.73999,26.43005s-40.28996,-2.69995 -44.90997,-5.51001s-5.61,-15.15002 -5.61,-15.15002z"/>
  <path id="svg_73" opacity="0.2" d="m262.04001,666.96997c-17.34,0.14001 -40.29001,-2.70001 -44.91,-5.50995c-3.51997,-2.14008 -4.92001,-9.83008 -5.39001,-13.38007l-0.50998,0s1,12.38007 5.59,15.20001s27.57001,5.65009 44.91,5.51001c5,0 6.72998,-1.82001 6.63998,-4.45001c-0.70001,1.60999 -2.60001,2.59998 -6.32999,2.63z"/>
  <path id="svg_74" fill="#656380" d="m799.40002,646.19995s9,-0.26996 11.66998,-2.19995s13.79004,-4.22003 14.46002,-1.13s13.46997,15.33997 3.34998,15.42004s-23.51996,-1.57007 -26.21997,-3.22009s-3.26001,-8.87 -3.26001,-8.87z"/>
  <path id="svg_75" opacity="0.2" d="m829.02002,657.21997c-10.12,0.08008 -23.52002,-1.57996 -26.21997,-3.21991c-2,-1.25006 -2.87,-5.74005 -3.14001,-7.81012l-0.26001,0s0.57001,7.2301 3.26001,8.87012s16.09998,3.30994 26.21997,3.21991c2.92004,0 3.92999,-1.06 3.87,-2.59991c-0.44,0.94 -1.56,1.5199 -3.72998,1.53992z"/>
  <path id="svg_76" fill="#656380" d="m910.23004,652.09998s15.34998,-0.47992 20,-3.77002s23.63,-7.22998 24.78003,-2s23.08002,26.2901 5.73993,26.43005s-40.28998,-2.69995 -44.90997,-5.51001s-5.60999,-15.15002 -5.60999,-15.15002z"/>
  <path id="svg_77" opacity="0.2" d="m961.04004,670.96997c-17.34003,0.14001 -40.28998,-2.70001 -44.91003,-5.50995c-3.51996,-2.14008 -4.91998,-9.83008 -5.38995,-13.38007l-0.51001,0s1,12.38007 5.59003,15.20001s27.56995,5.65009 44.90991,5.51001c5,0 6.7301,-1.82001 6.64001,-4.45001c-0.69995,1.60999 -2.59998,2.59998 -6.32996,2.63z"/>
 </g>
</svg>