<svg width="560" height="550" xmlns="http://www.w3.org/2000/svg">
 <g>
  <title>background</title>
  <rect x="-1" y="-1" width="562" height="552" id="canvas_background" fill="none"/>
 </g>

 <g>
  <title>Layer 1</title>
  <circle cx="400" cy="282" r="125" fill="#84839e" id="svg_3"/>
  <circle cx="353" cy="257" r="32" fill="#fff" id="svg_4"/>
  <path d="m363.02637,321a19.02426,19.02426 0 0 0 18.97363,18l52,0a19.02425,19.02425 0 0 0 18.97363,-18l-89.94727,0z" fill="#fff" id="svg_5" transform="rotate(-180 408 330)"/>
  <circle cx="341" cy="267.5" r="17" fill="#3f3d56" id="svg_6"/>
  <circle cx="347" cy="260.5" r="4" fill="#fff" id="svg_7"/>
  <circle cx="457" cy="257.5" r="32" fill="#fff" id="svg_8"/>
  <circle cx="445" cy="267.5" r="17" fill="#3f3d56" id="svg_9"/>
  <circle cx="451" cy="260.5" r="4" fill="#fff" id="svg_10"/>
  <circle cx="402" cy="293" r="12" fill="#3f3d56" id="svg_11"/>
  <path d="m134.26169,412.11908s14.11636,41.34082 8.0665,56.46545l18.1496,16.133l11.09143,-14.11633s-12.09973,-12.09973 -11.09143,-21.17456s2.01666,-41.34082 2.01666,-41.34082l-28.23276,4.03326z" fill="#ffb9b9" id="svg_13"/>
  <path d="m201.81299,492.7785c-0.82434,0.48193 -1.6106,0.93842 -2.33344,1.35699l-62.58408,0a3.303,3.303 0 0 1 -1.62323,-3.37335c0.29166,-1.49646 1.03986,-4.54004 1.96567,-8.04016c2.19391,-8.28119 5.41501,-19.12402 6.11258,-17.97003a0.01241,0.01241 0 0 1 0.01259,0.01276c0.97653,1.80084 2.99292,9.86633 8.04022,8.86444c5.0473,-1.01453 13.11293,-3.03082 13.11293,-3.03082s-2.87878,-6.46771 -0.12689,-9.08014a3.857,3.857 0 0 1 2.14319,-1.00183c6.04919,-1.00183 6.04919,8.06555 6.04919,8.06555l22.1803,12.09833a36.84237,36.84237 0 0 1 5.58002,2.04175c4.50189,2.1051 8.95319,5.70673 1.47095,10.05652z" fill="#2f2e41" id="svg_14"/>
  <path d="m93.9292,396.99438l-26.21609,31.25769l-7.0582,16.133l9.07481,7.05817l8.0665,-3.02496s7.0582,-18.1496 14.11636,-21.1745s24.19949,-23.19119 24.19949,-23.19119l-22.18286,-7.0582z" fill="#ffb9b9" id="svg_15"/>
  <path d="m148.8822,373.00665l-13.37021,24.78436l-9.57901,17.74634c-3.06525,1.82501 -7.14891,1.79474 -11.54517,0.71582a44.21718,44.21718 0 0 1 -6.00952,-2.00653c-11.99893,-4.91046 -24.16925,-14.66083 -24.16925,-14.66083l23.02988,-28.77722l7.52197,-9.38739l1.78476,-2.2384l8.60092,3.6803l15.17508,6.4834l8.56055,3.66016z" fill="#2f2e41" id="svg_16"/>
  <path d="m89.21133,158.99155l-10.68018,43.80954l10.99345,56.20502s0.27077,22.97601 10.34499,21.23236s-0.4834,-24.91589 -0.4834,-24.91589l-4.92766,-46.08504l15.75499,-45.5298c1.27618,-3.68805 -0.33551,-7.64731 -4.03201,-9.905l0,0c-6.23822,-3.80997 -15.10326,-1.09932 -16.97017,5.18881z" fill="#ffb9b9" id="svg_17"/>
  <path d="m126.69934,121.2211l-9.0748,28.23273l-17.14133,-9.0748s7.0582,-20.16623 7.0582,-23.19119s19.15793,4.03326 19.15793,4.03326z" fill="#ffb9b9" id="svg_18"/>
  <circle cx="119.64115" cy="111.13799" r="21.17455" fill="#ffb9b9" id="svg_19"/>
  <path d="m125.18686,156.00787l-4.03326,-4.03326l-1.0083,-5.04153s-13.10805,-17.14133 -24.19948,-11.09143c-3.46606,1.89056 -6.04593,6.24286 -7.955,11.33365a55.05691,55.05691 0 0 0 1.26645,40.9528l17.77998,41.48656l40.33246,-4.03326l-7.05818,-26.21613s7.05818,-16.133 -6.04987,-27.2244l-9.0748,-16.133z" fill="#84839e" id="svg_20"/>
  <path d="m148.8822,373.00665l-13.37021,24.78436l-9.57901,17.74634c-3.06525,1.82501 -7.14891,1.79474 -11.54517,0.71582c-0.76628,-5.10205 3.81142,-32.06427 0.21175,-54.04547l0.16133,-0.7865l1.78473,-2.2384l8.60092,3.6803l15.17508,6.4834l8.56058,3.66016z" opacity="0.3" id="svg_21"/>
  <path d="m148.8822,223.06061s-26.21613,-16.133 -44.36572,4.03326l1.0083,6.04987s-15.12466,17.1413 -6.04987,53.44055s23.19116,131.08051 23.19116,131.08051s33.27428,2.01666 48.39899,-9.07477c0,0 -5.0415,-125.0307 -22.18286,-137.13043l0,-48.39899z" fill="#2f2e41" id="svg_22"/>
  <path d="m94.21606,166.90121l28.45001,34.98483l51.42395,25.20782s18.4693,13.6694 23.16832,4.58926s-20.14337,-14.67241 -20.14337,-14.67241l-39.69539,-23.92474l-26.75369,-40.06769c-2.16714,-3.24561 -6.29559,-4.35422 -10.32831,-2.77344l0,0c-6.80542,2.66757 -10.00323,11.36877 -6.12152,16.65634l0,0.00002z" fill="#ffb9b9" id="svg_23"/>
  <path d="m75.367,446.20313s6.18051,-7.77307 9.8726,-2.87549s-4.35385,9.09473 -4.35385,9.09473l-0.46829,25.26385s4.39059,19.3175 -7.46347,11.85406s-12.32037,-8.35742 -14.6521,-12.82739s-7.15002,-22.42712 -11.30838,-28.21869s-7.96655,-17.45215 -3.03027,-18.88983s27.94547,-6.55658 26.79913,-4.85144s-7.36551,7.22375 -4.1398,11.22736s8.74445,10.22284 8.74445,10.22284l-0.00002,0z" fill="#2f2e41" id="svg_24"/>
  <path d="m130.73062,93.06549c0.00006,-0.02585 0.00198,-0.05127 0.00198,-0.07712a29.241,29.241 0 1 0 -29.24101,29.24106c0.67932,0 3.36552,5.08716 4.03326,5.04153c0.03998,-15.43492 10.02452,-33.16916 25.20575,-34.20547l0.00002,0z" fill="#2f2e41" id="svg_25"/>
  <circle cx="70.23387" cy="70.80551" r="19.15793" fill="#2f2e41" id="svg_26"/>
  <path d="m69.35501,41.78452a19.13147,19.13147 0 0 1 5.46567,37.50066a19.14415,19.14415 0 1 0 -5.46567,-37.50066z" fill="#2f2e41" id="svg_27"/>
  <path d="m114.59959,86.93851l15.34839,0a12.88435,12.88435 0 0 1 12.88435,12.88434l0,5.26529l0,0l-28.23276,0l0,0l0,-18.14963l0,0l0.00002,0z" fill="#2f2e41" id="svg_28"/>
 </g>
</svg>